<?xml version="1.0" encoding="UTF-8" standalone="no"?>
<svg
   width="256"
   height="256"
   version="1"
   id="svg54"
   sodipodi:docname="icon.svg"
   inkscape:version="1.1 (c68e22c387, 2021-05-23)"
   xmlns:inkscape="http://www.inkscape.org/namespaces/inkscape"
   xmlns:sodipodi="http://sodipodi.sourceforge.net/DTD/sodipodi-0.dtd"
   xmlns="http://www.w3.org/2000/svg"
   xmlns:svg="http://www.w3.org/2000/svg">
  <defs
     id="defs58" />
  <sodipodi:namedview
     id="namedview56"
     pagecolor="#ffffff"
     bordercolor="#666666"
     borderopacity="1.0"
     inkscape:pageshadow="2"
     inkscape:pageopacity="0.0"
     inkscape:pagecheckerboard="0"
     showgrid="false"
     width="128px"
     lock-margins="false"
     inkscape:zoom="2.276"
     inkscape:cx="21.748682"
     inkscape:cy="99.956065"
     inkscape:window-width="1920"
     inkscape:window-height="1009"
     inkscape:window-x="-8"
     inkscape:window-y="-8"
     inkscape:window-maximized="1"
     inkscape:current-layer="g899" />
  <g
     id="g958">
    <g
       id="g928">
      <g
         id="g899"
         transform="translate(-3.9847662)">
        <g
           id="g988"
           transform="matrix(1.9999999,0,0,1.9894954,11.985236,17.375005)">
          <path
             style="opacity:0.2;fill:none;stroke:#000000;stroke-width:8.02072;stroke-linecap:round;stroke-linejoin:round"
             d="M 8.0618171,14.416981 H 16.025184 V 98.814855"
             id="path8"
             transform="translate(3.9847662)" />
          <path
             style="fill:none;stroke:#b7b7b7;stroke-width:8.02072;stroke-linecap:round;stroke-linejoin:round"
             d="M 8.0618171,12.406598 H 16.025184 V 96.804473"
             id="path10"
             transform="translate(3.9847662)" />
          <path
             style="opacity:0.2;stroke-width:2.00518"
             d="m 25.349145,22.412273 c -2.955988,0 -5.333978,2.482821 -5.333978,5.566749 v 61.236257 c 0,3.083928 2.37799,5.568759 5.333978,5.568759 H 36.0151 V 82.721743 H 60.015 v 12.062295 h 50.66779 c 2.95199,0 5.33198,-2.484831 5.33198,-5.568759 V 27.979022 c 0,-3.085938 -2.37999,-5.568759 -5.33198,-5.568759 z"
             id="path2" />
          <path
             style="fill:#419d45;stroke-width:2.00518"
             d="m 25.349145,20.401891 c -2.955988,0 -5.333978,2.482821 -5.333978,5.566749 v 61.236256 c 0,3.083928 2.37799,5.568759 5.333978,5.568759 H 36.0151 V 80.71136 H 60.015 v 12.062295 h 50.66779 c 2.95199,0 5.33198,-2.484831 5.33198,-5.568759 V 25.96864 c 0,-3.085938 -2.37999,-5.56876 -5.33198,-5.56876 z"
             id="path4" />
          <rect
             style="fill:#4e4e4e;stroke-width:2.00518"
             width="23.999899"
             height="24.124592"
             x="56.015018"
             y="40.503704"
             rx="4.7999802"
             ry="4.8249187"
             id="rect6" />
          <g
             style="opacity:0.2"
             transform="matrix(1.9999916,0,0,2.0103827,-3.9847326,-5.7350952)"
             id="g20">
            <rect
               width="4"
               height="8"
               x="34"
               y="44"
               id="rect12" />
            <rect
               width="4"
               height="8"
               x="40"
               y="44"
               id="rect14" />
            <rect
               width="4"
               height="8"
               x="46"
               y="44"
               id="rect16" />
            <rect
               width="4"
               height="8"
               x="52"
               y="44"
               id="rect18" />
          </g>
          <g
             id="g30"
             transform="matrix(1.9999916,0,0,2.0103827,-3.9847326,-7.7454778)">
            <rect
               style="fill:#f8c44e"
               width="4"
               height="8"
               x="34"
               y="44"
               id="rect22" />
            <rect
               style="fill:#f8c44e"
               width="4"
               height="8"
               x="40"
               y="44"
               id="rect24" />
            <rect
               style="fill:#f8c44e"
               width="4"
               height="8"
               x="46"
               y="44"
               id="rect26" />
            <rect
               style="fill:#f8c44e"
               width="4"
               height="8"
               x="52"
               y="44"
               id="rect28" />
          </g>
          <g
             id="g48"
             transform="matrix(1.9999916,0,0,2.0103827,-3.9847326,-7.7454778)">
            <rect
               style="fill:#b7b7b7"
               width="2"
               height="4"
               x="32"
               y="21"
               id="rect32" />
            <rect
               style="fill:#b7b7b7"
               width="2"
               height="4"
               x="38"
               y="21"
               id="rect34" />
            <rect
               style="fill:#b7b7b7"
               width="2"
               height="4"
               x="32"
               y="35"
               id="rect36" />
            <rect
               style="fill:#b7b7b7"
               width="2"
               height="4"
               x="38"
               y="35"
               id="rect38" />
            <rect
               style="fill:#b7b7b7"
               width="2"
               height="4"
               x="26"
               y="-45"
               transform="rotate(90)"
               id="rect40" />
            <rect
               style="fill:#b7b7b7"
               width="2"
               height="4"
               x="32"
               y="-45"
               transform="rotate(90)"
               id="rect42" />
            <rect
               style="fill:#b7b7b7"
               width="2"
               height="4"
               x="26"
               y="-31"
               transform="rotate(90)"
               id="rect44" />
            <rect
               style="fill:#b7b7b7"
               width="2"
               height="4"
               x="32"
               y="-31"
               transform="rotate(90)"
               id="rect46" />
          </g>
          <path
             style="opacity:0.2;fill:#ffffff;stroke-width:2.00518"
             d="M 8.0620171,8.3846266 A 4.0003833,4.0211675 0 0 0 4.1050336,13.383643 4.0003833,4.0211675 0 0 1 8.0620171,10.395009 h 7.9651669 a 4.0003833,4.0211675 0 0 1 3.999983,4.019962 V 12.404588 A 4.0003833,4.0211675 0 0 0 16.027184,8.3846266 Z"
             id="path50" />
          <path
             style="opacity:0.2;fill:#ffffff;stroke-width:2.00518"
             d="m 110.68279,20.39988 -85.331645,0.0041 c -2.955988,0 -5.335978,2.480812 -5.335978,5.564739 v 2.010383 c 0,-3.083928 2.37999,-5.564739 5.335978,-5.564739 l 85.331645,-0.0041 c 2.95199,0 5.33198,2.482821 5.33198,5.568759 V 25.96864 c 0,-3.085938 -2.37999,-5.56876 -5.33198,-5.56876 z"
             id="path52" />
        </g>
      </g>
    </g>
  </g>
</svg>
