<?xml version="1.0" encoding="UTF-8" standalone="no"?>
<svg
   width="64"
   height="64"
   version="1.1"
   viewBox="0 0 64 64"
   id="svg34"
   sodipodi:docname="passthrough.svg"
   xml:space="preserve"
   inkscape:version="1.2.1 (9c6d41e410, 2022-07-14)"
   xmlns:inkscape="http://www.inkscape.org/namespaces/inkscape"
   xmlns:sodipodi="http://sodipodi.sourceforge.net/DTD/sodipodi-0.dtd"
   xmlns="http://www.w3.org/2000/svg"
   xmlns:svg="http://www.w3.org/2000/svg"><defs
     id="defs38" /><sodipodi:namedview
     id="namedview36"
     pagecolor="#ffffff"
     bordercolor="#000000"
     borderopacity="0.25"
     inkscape:showpageshadow="2"
     inkscape:pageopacity="0.0"
     inkscape:pagecheckerboard="0"
     inkscape:deskcolor="#d1d1d1"
     showgrid="false"
     inkscape:zoom="7.34375"
     inkscape:cx="29.617021"
     inkscape:cy="29.548936"
     inkscape:window-width="1366"
     inkscape:window-height="699"
     inkscape:window-x="0"
     inkscape:window-y="0"
     inkscape:window-maximized="1"
     inkscape:current-layer="svg34" /><g
     id="g363"
     transform="matrix(0.74892687,0,0,0.75000365,1.7532193,1.7455945)"><path
       style="fill:none;stroke:#cbbb2e;stroke-width:11.9973"
       d="M 36.992469,11.004652 20.996013,27.001107"
       id="path2" /><rect
       style="fill:#cbbb2e"
       width="15.996"
       height="33.992001"
       x="-25"
       y="23"
       ry="0"
       transform="scale(-1,1)"
       id="rect4" /><path
       style="fill:#d6c84a"
       d="m 24.995127,52.995348 c 1.999557,0 1.999557,1.999558 1.999557,1.999558 v 3.999113 H 6.9991142 v -3.999113 c 0,-1.999558 1.999557,-1.999558 1.999557,-1.999558 z"
       id="path6" /><path
       style="fill:#4f4f4f"
       d="m 28.994241,54.994906 c 1.999557,0 1.999557,1.999557 1.999557,1.999557 v 3.999114 H 3.0000002 v -3.999114 c 0,-1.999557 1.999557,-1.999557 1.999557,-1.999557 z"
       id="path8" /><path
       style="fill:none;stroke:#cbbb2e;stroke-width:7.99823;stroke-linecap:square"
       d="m 36.992469,11.004652 7.998228,7.998228"
       id="path10" /><rect
       style="opacity:0.2"
       width="15.996"
       height="15.996"
       x="-44.990002"
       y="4"
       ry="7.9980001"
       transform="scale(-1,1)"
       id="rect12" /><rect
       style="opacity:0.2"
       width="23.995001"
       height="23.995001"
       x="-28.99"
       y="20"
       ry="11.997"
       transform="scale(-1,1)"
       id="rect14" /><rect
       style="fill:#d6c84a"
       width="23.995001"
       height="23.995001"
       x="-28.99"
       y="19"
       ry="11.997"
       transform="scale(-1,1)"
       id="rect16" /><rect
       style="fill:#4f4f4f"
       width="15.996"
       height="15.996"
       x="-25"
       y="23"
       ry="7.9980001"
       transform="scale(-1,1)"
       id="rect18" /><rect
       style="opacity:0.1;fill:#ffffff"
       width="11.997"
       height="11.997"
       x="-23"
       y="25"
       ry="5.9990001"
       transform="scale(-1,1)"
       id="rect20" /><rect
       style="fill:#d6c84a"
       width="15.996"
       height="15.996"
       x="-44.990002"
       y="3.01"
       ry="7.9980001"
       transform="scale(-1,1)"
       id="rect22" /><path
       style="fill:none;stroke:#4f4f4f;stroke-width:3.99911;stroke-linecap:round"
       d="m 48.989811,32.999778 -3.999114,-1.999556 v -7.998229 l 3.999114,-3.999113 h 7.998228 l 1.999557,3.999113"
       id="path24" /><rect
       style="fill:#4f4f4f"
       width="7.9980001"
       height="7.9980001"
       x="-40.990002"
       y="7.0100002"
       ry="3.9990001"
       transform="scale(-1,1)"
       id="rect26" /><path
       style="opacity:0.2;fill:#ffffff"
       d="M 16.996094,19.001953 C 10.349567,19.001953 5,24.353472 5,31 c 0,0.166329 0.016342,0.328288 0.025391,0.492188 0.2662959,-6.407334 5.495621,-11.490235 11.970703,-11.490235 6.477727,0 11.71032,5.087011 11.972656,11.498047 0.0093,-0.166446 0.02539,-0.331197 0.02539,-0.5 0,-6.646528 -5.351519,-11.998047 -11.998046,-11.998047 z"
       id="path28" /><path
       style="opacity:0.2;fill:#ffffff"
       d="m 36.992188,3.0058594 c -4.431019,0 -7.998047,3.567028 -7.998047,7.9980466 0,0.116378 0.02301,0.226359 0.0332,0.339844 0.335043,-4.118378 3.757229,-7.3378906 7.964844,-7.3378906 4.207615,0 7.629801,3.2195126 7.964843,7.3378906 0.01019,-0.113485 0.0332,-0.223466 0.0332,-0.339844 0,-4.4310186 -3.567028,-7.9980466 -7.998046,-7.9980466 z"
       id="path30" /><path
       style="opacity:0.1;fill:#ffffff"
       d="m 5,54.994141 c 0,0 -2,4.43e-4 -2,2 V 58 c 0,-1.999557 2,-2 2,-2 h 23.994141 c 1.999557,0 2,2 2,2 v -1.005859 c 0,0 -4.43e-4,-2 -2,-2 z"
       id="path32" /></g><g
     id="g291"
     transform="matrix(0,0.6,-0.6,0,62.4,26.4)"><path
       style="opacity:0.2"
       d="M 10.824219,5 C 9.2599836,5 8,6.2495812 8,7.8007812 V 11 58.199218 C 8,59.750418 9.2599836,61 10.824219,61 H 53.175782 C 54.740018,61 56,59.750418 56,58.199218 V 11 7.8007812 C 56,6.2495812 54.740018,5 53.175782,5 Z"
       id="path267" /><path
       style="fill:#333333"
       d="M 8,9 V 57.2 C 8,58.7512 9.2592942,60 10.823529,60 H 53.17647 C 54.740706,60 56,58.7512 56,57.2 V 9 Z"
       id="path269" /><path
       style="fill:#595959"
       d="M 10.823529,4 C 9.2592942,4 8,5.2488 8,6.8 V 9 H 56 V 6.8 C 56,5.2488 54.740706,4 53.17647,4 Z"
       id="path271" /><rect
       style="opacity:0.2"
       width="48"
       height="1"
       x="8"
       y="9"
       id="rect273" /><path
       style="opacity:0.1;fill:#ffffff"
       d="M 10.824219,4 C 9.2599834,4 8,5.2495812 8,6.8007812 v 1 C 8,6.2495813 9.2599834,5 10.824219,5 H 53.175781 C 54.740017,5 56,6.2495812 56,7.8007812 v -1 C 56,5.2495813 54.740017,4 53.175781,4 Z"
       id="path275" /><circle
       style="fill:#333333"
       cx="32"
       cy="7"
       r="1"
       id="circle277" /></g></svg>
